Sprint_07200001_forces_filt100Hz.mot
version=1
nRows=53
nColumns=19
inDegrees=yes
endheader
time	R_ground_force_vx	R_ground_force_vy	R_ground_force_vz	R_ground_force_px	R_ground_force_py	R_ground_force_pz	R_ground_torque_x	R_ground_torque_y	R_ground_torque_z	L_ground_force_vx	L_ground_force_vy	L_ground_force_vz	L_ground_force_px	L_ground_force_py	L_ground_force_pz	L_ground_torque_x	L_ground_torque_y	L_ground_torque_z	
1.589500	  0.000000	  0.000000	  0.000000	  0.137100	  0.000000	 -0.213617	  0.000000	  0.000000	  0.000000	  0.000000	  0.000000	  0.000000	  1.428945	  0.000000	 -0.388246	  0.000000	  0.000000	  0.000000
1.590000	  0.000000	  0.000000	  0.000000	  0.136045	  0.000000	 -0.213471	  0.000000	  0.000000	  0.000000	  0.000000	  0.000000	  0.000000	  1.430607	  0.000000	 -0.388264	  0.000000	  0.000000	  0.000000
1.590500	  0.000000	  0.000000	  0.000000	  0.135233	  0.000000	 -0.213351	  0.000000	  0.000000	  0.000000	  0.000000	  0.000000	  0.000000	  1.431906	  0.000000	 -0.388278	  0.000000	  0.000000	  0.000000
1.591000	  0.000000	  0.000000	  0.000000	  0.134422	  0.000000	 -0.213231	  0.000000	  0.000000	  0.000000	  0.000000	  0.000000	  0.000000	  1.433204	  0.000000	 -0.388293	  0.000000	  0.000000	  0.000000
1.591500	  0.000000	  0.000000	  0.000000	  0.133610	  0.000000	 -0.213110	  0.000000	  0.000000	  0.000000	  0.000000	  0.000000	  0.000000	  1.434503	  0.000000	 -0.388307	  0.000000	  0.000000	  0.000000
1.592000	  0.000000	  0.000000	  0.000000	  0.132799	  0.000000	 -0.212990	  0.000000	  0.000000	  0.000000	  0.000000	  0.000000	  0.000000	  1.435802	  0.000000	 -0.388322	  0.000000	  0.000000	  0.000000
1.592500	  0.000000	  0.000000	  0.000000	  0.131987	  0.000000	 -0.212870	  0.000000	  0.000000	  0.000000	  0.000000	  0.000000	  0.000000	  1.437100	  0.000000	 -0.388336	  0.000000	  0.000000	  0.000000
1.593000	  0.000000	  0.000000	  0.000000	  0.131176	  0.000000	 -0.212750	  0.000000	  0.000000	  0.000000	  0.000000	  0.000000	  0.000000	  1.438399	  0.000000	 -0.388351	  0.000000	  0.000000	  0.000000
1.593500	  0.000000	  0.000000	  0.000000	  0.130364	  0.000000	 -0.212630	  0.000000	  0.000000	  0.000000	  0.000000	  0.000000	  0.000000	  1.439697	  0.000000	 -0.388366	  0.000000	  0.000000	  0.000000
1.594000	  0.000000	  0.000000	  0.000000	  0.129553	  0.000000	 -0.212510	  0.000000	  0.000000	  0.000000	  0.000000	  0.000000	  0.000000	  1.440996	  0.000000	 -0.388380	  0.000000	  0.000000	  0.000000
1.594500	  0.000000	  0.000000	  0.000000	  0.128741	  0.000000	 -0.212390	  0.000000	  0.000000	  0.000000	  0.000000	  0.000000	  0.000000	  1.442294	  0.000000	 -0.388395	  0.000000	  0.000000	  0.000000
1.595000	  0.000000	  0.000000	  0.000000	  0.127929	  0.000000	 -0.212270	  0.000000	  0.000000	  0.000000	  0.000000	  0.000000	  0.000000	  1.443593	  0.000000	 -0.388409	  0.000000	  0.000000	  0.000000
1.595500	  0.000000	  0.000000	  0.000000	  0.127342	  0.000000	 -0.212437	  0.000000	  0.000000	  0.000000	  0.000000	  0.000000	  0.000000	  1.444430	  0.000000	 -0.388489	  0.000000	  0.000000	  0.000000
1.596000	  0.000000	  0.000000	  0.000000	  0.126754	  0.000000	 -0.212603	  0.000000	  0.000000	  0.000000	  0.000000	  0.000000	  0.000000	  1.445266	  0.000000	 -0.388570	  0.000000	  0.000000	  0.000000
1.596500	  0.000000	  0.000000	  0.000000	  0.126166	  0.000000	 -0.212769	  0.000000	  0.000000	  0.000000	  0.000000	  0.000000	  0.000000	  1.446103	  0.000000	 -0.388650	  0.000000	  0.000000	  0.000000
1.597000	  0.000000	  0.000000	  0.000000	  0.125578	  0.000000	 -0.212935	  0.000000	  0.000000	  0.000000	  0.000000	  0.000000	  0.000000	  1.446939	  0.000000	 -0.388730	  0.000000	  0.000000	  0.000000
1.597500	  0.000000	  0.000000	  0.000000	  0.124991	  0.000000	 -0.213102	  0.000000	  0.000000	  0.000000	  0.000000	  0.000000	  0.000000	  1.447776	  0.000000	 -0.388810	  0.000000	  0.000000	  0.000000
1.598000	  0.000000	  0.000000	  0.000000	  0.124403	  0.000000	 -0.213268	  0.000000	  0.000000	  0.000000	  0.000000	  0.000000	  0.000000	  1.448612	  0.000000	 -0.388890	  0.000000	  0.000000	  0.000000
1.598500	  0.000000	  0.000000	  0.000000	  0.123815	  0.000000	 -0.213434	  0.000000	  0.000000	  0.000000	  0.000000	  0.000000	  0.000000	  1.449449	  0.000000	 -0.388970	  0.000000	  0.000000	  0.000000
1.599000	  0.000000	  0.000000	  0.000000	  0.123227	  0.000000	 -0.213601	  0.000000	  0.000000	  0.000000	  0.000000	  0.000000	  0.000000	  1.450285	  0.000000	 -0.389050	  0.000000	  0.000000	  0.000000
1.599500	  0.000000	  0.000000	  0.000000	  0.122639	  0.000000	 -0.213767	  0.000000	  0.000000	  0.000000	  0.000000	  0.000000	  0.000000	  1.451122	  0.000000	 -0.389131	  0.000000	  0.000000	  0.000000
1.600000	  0.000000	  0.000000	  0.000000	  0.122052	  0.000000	 -0.213933	  0.000000	  0.000000	  0.000000	  0.000000	  0.000000	  0.000000	  1.451958	  0.000000	 -0.389211	  0.000000	  0.000000	  0.000000
1.600500	  0.000000	  0.000000	  0.000000	  0.121757	  0.000000	 -0.213987	  0.000000	  0.000000	  0.000000	  0.000000	  0.000000	  0.000000	  1.452372	  0.000000	 -0.389370	  0.000000	  0.000000	  0.000000
1.601000	  0.000000	  0.000000	  0.000000	  0.121463	  0.000000	 -0.214040	  0.000000	  0.000000	  0.000000	  0.000000	  0.000000	  0.000000	  1.452785	  0.000000	 -0.389529	  0.000000	  0.000000	  0.000000
1.601500	  0.000000	  0.000000	  0.000000	  0.121169	  0.000000	 -0.214094	  0.000000	  0.000000	  0.000000	  0.000000	  0.000000	  0.000000	  1.453199	  0.000000	 -0.389688	  0.000000	  0.000000	  0.000000
1.602000	  0.000000	  0.000000	  0.000000	  0.120875	  0.000000	 -0.214148	  0.000000	  0.000000	  0.000000	  0.000000	  0.000000	  0.000000	  1.453612	  0.000000	 -0.389848	  0.000000	  0.000000	  0.000000
1.602500	  0.000000	  0.000000	  0.000000	  0.120581	  0.000000	 -0.214201	  0.000000	  0.000000	  0.000000	  0.000000	  0.000000	  0.000000	  1.454025	  0.000000	 -0.390007	  0.000000	  0.000000	  0.000000
1.603000	  0.000000	  0.000000	  0.000000	  0.120287	  0.000000	 -0.214255	  0.000000	  0.000000	  0.000000	  0.000000	  0.000000	  0.000000	  1.454439	  0.000000	 -0.390166	  0.000000	  0.000000	  0.000000
1.603500	  0.000000	  0.000000	  0.000000	  0.119992	  0.000000	 -0.214308	  0.000000	  0.000000	  0.000000	  0.000000	  0.000000	  0.000000	  1.454852	  0.000000	 -0.390325	  0.000000	  0.000000	  0.000000
1.604000	  0.000000	  0.000000	  0.000000	  0.119698	  0.000000	 -0.214362	  0.000000	  0.000000	  0.000000	  0.000000	  0.000000	  0.000000	  1.455266	  0.000000	 -0.390485	  0.000000	  0.000000	  0.000000
1.604500	  0.000000	  0.000000	  0.000000	  0.119404	  0.000000	 -0.214416	  0.000000	  0.000000	  0.000000	  0.000000	  0.000000	  0.000000	  1.455679	  0.000000	 -0.390644	  0.000000	  0.000000	  0.000000
1.605000	  0.000000	  0.000000	  0.000000	  0.119110	  0.000000	 -0.214469	  0.000000	  0.000000	  0.000000	  0.000000	  0.000000	  0.000000	  1.456093	  0.000000	 -0.390803	  0.000000	  0.000000	  0.000000
1.605500	  0.000000	  0.000000	  0.000000	  0.119197	  0.000000	 -0.214567	  0.000000	  0.000000	  0.000000	  0.000000	  0.000000	  0.000000	  1.456152	  0.000000	 -0.390933	  0.000000	  0.000000	  0.000000
1.606000	  0.000000	  0.000000	  0.000000	  0.119283	  0.000000	 -0.214666	  0.000000	  0.000000	  0.000000	  0.000000	  0.000000	  0.000000	  1.456211	  0.000000	 -0.391063	  0.000000	  0.000000	  0.000000
1.606500	  0.000000	  0.000000	  0.000000	  0.119370	  0.000000	 -0.214764	  0.000000	  0.000000	  0.000000	  0.000000	  0.000000	  0.000000	  1.456271	  0.000000	 -0.391193	  0.000000	  0.000000	  0.000000
1.607000	  0.000000	  0.000000	  0.000000	  0.119456	  0.000000	 -0.214862	  0.000000	  0.000000	  0.000000	  0.000000	  0.000000	  0.000000	  1.456330	  0.000000	 -0.391323	  0.000000	  0.000000	  0.000000
1.607500	  0.000000	  0.000000	  0.000000	  0.119543	  0.000000	 -0.214960	  0.000000	  0.000000	  0.000000	  0.000000	  0.000000	  0.000000	  1.456389	  0.000000	 -0.391452	  0.000000	  0.000000	  0.000000
1.608000	  0.000000	  0.000000	  0.000000	  0.119630	  0.000000	 -0.215059	  0.000000	  0.000000	  0.000000	  0.000000	  0.000000	  0.000000	  1.456449	  0.000000	 -0.391582	  0.000000	  0.000000	  0.000000
1.608500	  0.000000	  0.000000	  0.000000	  0.119716	  0.000000	 -0.215157	  0.000000	  0.000000	  0.000000	  0.000000	  0.000000	  0.000000	  1.456508	  0.000000	 -0.391712	  0.000000	  0.000000	  0.000000
1.609000	  0.000000	  0.000000	  0.000000	  0.119803	  0.000000	 -0.215255	  0.000000	  0.000000	  0.000000	  0.000000	  0.000000	  0.000000	  1.456567	  0.000000	 -0.391842	  0.000000	  0.000000	  0.000000
1.609500	  0.000000	  0.000000	  0.000000	  0.119889	  0.000000	 -0.215353	  0.000000	  0.000000	  0.000000	  0.000000	  0.000000	  0.000000	  1.456627	  0.000000	 -0.391972	  0.000000	  0.000000	  0.000000
1.610000	  0.000000	  0.000000	  0.000000	  0.119976	  0.000000	 -0.215451	  0.000000	  0.000000	  0.000000	  0.000000	  0.000000	  0.000000	  1.456686	  0.000000	 -0.392102	  0.000000	  0.000000	  0.000000
1.610500	  0.000000	  0.000000	  0.000000	  0.120370	  0.000000	 -0.215607	  0.000000	  0.000000	  0.000000	  0.000000	  0.000000	  0.000000	  1.456419	  0.000000	 -0.392193	  0.000000	  0.000000	  0.000000
1.611000	  0.000000	  0.000000	  0.000000	  0.120763	  0.000000	 -0.215763	  0.000000	  0.000000	  0.000000	  0.000000	  0.000000	  0.000000	  1.456152	  0.000000	 -0.392284	  0.000000	  0.000000	  0.000000
1.611500	  0.000000	  0.000000	  0.000000	  0.121157	  0.000000	 -0.215919	  0.000000	  0.000000	  0.000000	  0.000000	  0.000000	  0.000000	  1.455885	  0.000000	 -0.392376	  0.000000	  0.000000	  0.000000
1.612000	  0.000000	  0.000000	  0.000000	  0.121550	  0.000000	 -0.216075	  0.000000	  0.000000	  0.000000	  0.000000	  0.000000	  0.000000	  1.455618	  0.000000	 -0.392467	  0.000000	  0.000000	  0.000000
1.612500	  0.000000	  0.000000	  0.000000	  0.121944	  0.000000	 -0.216231	  0.000000	  0.000000	  0.000000	  0.000000	  0.000000	  0.000000	  1.455351	  0.000000	 -0.392558	  0.000000	  0.000000	  0.000000
1.613000	  0.000000	  0.000000	  0.000000	  0.122338	  0.000000	 -0.216387	  0.000000	  0.000000	  0.000000	  0.000000	  0.000000	  0.000000	  1.455084	  0.000000	 -0.392650	  0.000000	  0.000000	  0.000000
1.613500	  0.000000	  0.000000	  0.000000	  0.122731	  0.000000	 -0.216543	  0.000000	  0.000000	  0.000000	  0.000000	  0.000000	  0.000000	  1.454817	  0.000000	 -0.392741	  0.000000	  0.000000	  0.000000
1.614000	  0.000000	  0.000000	  0.000000	  0.123125	  0.000000	 -0.216698	  0.000000	  0.000000	  0.000000	  0.000000	  0.000000	  0.000000	  1.454550	  0.000000	 -0.392832	  0.000000	  0.000000	  0.000000
1.614500	  0.000000	  0.000000	  0.000000	  0.123519	  0.000000	 -0.216854	  0.000000	  0.000000	  0.000000	  0.000000	  0.000000	  0.000000	  1.454283	  0.000000	 -0.392924	  0.000000	  0.000000	  0.000000
1.615000	  0.000000	  0.000000	  0.000000	  0.123912	  0.000000	 -0.217010	  0.000000	  0.000000	  0.000000	  0.000000	  0.000000	  0.000000	  1.454016	  0.000000	 -0.393015	  0.000000	  0.000000	  0.000000
1.615500	  0.000000	  0.000000	  0.000000	  0.124578	  0.000000	 -0.217176	  0.000000	  0.000000	  0.000000	  0.000000	  0.000000	  0.000000	  1.453490	  0.000000	 -0.393126	  0.000000	  0.000000	  0.000000
